<svg xmlns="http://www.w3.org/2000/svg" version="1.1" xmlns:xlink="http://www.w3.org/1999/xlink" width="1000" height="1000"><g clip-path="url(#SvgjsClipPath1060)"><rect width="1000" height="1000" fill="#ffffff"></rect><g transform="matrix(12.78568003835704,0,0,12.78568003835704,100,394.13456928240373)"><svg xmlns="http://www.w3.org/2000/svg" version="1.1" xmlns:xlink="http://www.w3.org/1999/xlink" width="62.57" height="16.56"><svg xmlns="http://www.w3.org/2000/svg" viewBox="0 0 62.57 16.56">
                    <defs>
                        <style>
                            .cls-1 {
                                fill: #00a651;
                            }

                            .cls-2 {
                                fill: #231f20;
                            }
                        </style>
                    <clipPath id="SvgjsClipPath1060"><rect width="1000" height="1000" x="0" y="0" rx="500" ry="500"></rect></clipPath></defs>
                    <g id="Layer_2" data-name="Layer 2">
                        <g id="Layer_1-2" data-name="Layer 1">
                            <path class="cls-1" d="M.73,10.52c0-2.87,2-4.64,4.08-4.64,2.39,0,3.65,1.73,3.65,4.2a5.22,5.22,0,0,1-.09,1H2.76a2.51,2.51,0,0,0,2.61,2.46,3.81,3.81,0,0,0,2.05-.64l.7,1.29a5.45,5.45,0,0,1-3,1A4.28,4.28,0,0,1,.73,10.52Zm5.94-.84c0-1.37-.61-2.19-1.82-2.19A2.21,2.21,0,0,0,2.74,9.68Z" transform="translate(-0.73 -2)"></path>
                            <path class="cls-1" d="M10.44,6.1h1.7l.16,1.19h.06a4.12,4.12,0,0,1,2.9-1.41c1.9,0,2.72,1.28,2.72,3.51v5.55H15.91V9.66c0-1.45-.42-2-1.38-2a2.79,2.79,0,0,0-2,1.1v6.18H10.44Z" transform="translate(-0.73 -2)"></path>
                            <path class="cls-2" d="M19.94,10.52a4.37,4.37,0,0,1,4.44-4.64,3.78,3.78,0,0,1,2.58,1L26,8.22a2.15,2.15,0,0,0-1.47-.65c-1.42,0-2.41,1.18-2.41,2.95s1,2.94,2.35,2.94a2.93,2.93,0,0,0,1.83-.76l.84,1.37a4.4,4.4,0,0,1-2.89,1.09C21.79,15.16,19.94,13.46,19.94,10.52Z" transform="translate(-0.73 -2)"></path>
                            <path class="cls-2" d="M28.84,6.1h1.7l.16,1.57h.06a3,3,0,0,1,2.51-1.79,2.29,2.29,0,0,1,1,.18l-.36,1.8A2.9,2.9,0,0,0,33,7.72c-.7,0-1.55.48-2.09,1.83v5.39H28.84Z" transform="translate(-0.73 -2)"></path>
                            <path class="cls-2" d="M34.61,12.56c0-1.89,1.57-2.88,5.2-3.27,0-.95-.41-1.74-1.61-1.74a5,5,0,0,0-2.48.87L35,7a6.89,6.89,0,0,1,3.63-1.16c2.21,0,3.29,1.36,3.29,3.82v5.24h-1.7L40,14H40a4.26,4.26,0,0,1-2.75,1.2A2.49,2.49,0,0,1,34.61,12.56Zm5.2,0v-2c-2.4.31-3.2.93-3.2,1.82s.54,1.13,1.28,1.13A2.78,2.78,0,0,0,39.81,12.57Z" transform="translate(-0.73 -2)"></path>
                            <path class="cls-2" d="M49.74,12V7.75h-6.2V6.19l1.29-.09h5l.24-2.42h1.72V6.1h2.26V7.75H51.81V12c0,1.05.41,1.56,1.26,1.56a2.8,2.8,0,0,0,.92-.2l.35,1.52a5.68,5.68,0,0,1-1.81.33C50.5,15.16,49.74,13.87,49.74,12Zm-5-6.78c0-1.83.84-3.18,2.93-3.18a4.71,4.71,0,0,1,1.62.31l-.4,1.55a2.6,2.6,0,0,0-1-.21c-.73,0-1.12.47-1.12,1.5v9.79H44.73Z" transform="translate(-0.73 -2)"></path>
                            <path class="cls-2" d="M55.36,18.39l.38-1.61a2.5,2.5,0,0,0,.64.13,1.86,1.86,0,0,0,1.76-1.52l.17-.56L54.83,6.1h2.1l1.53,4.33c.26.79.52,1.66.77,2.5h.08c.22-.82.44-1.69.67-2.5L61.3,6.1h2l-3.19,9.24c-.74,2-1.67,3.23-3.6,3.23A3.38,3.38,0,0,1,55.36,18.39Z" transform="translate(-0.73 -2)"></path>
                        </g>
                    </g>
                </svg></svg></g></g></svg>